<svg xmlns="http://www.w3.org/2000/svg" version="1.1" xmlns:xlink="http://www.w3.org/1999/xlink" xmlns:svgjs="http://svgjs.com/svgjs" width="512.000000pt" height="512.000000pt"><svg version="1.0" xmlns="http://www.w3.org/2000/svg" width="512.000000pt" height="512.000000pt" viewBox="0 0 512.000000 512.000000" preserveAspectRatio="xMidYMid meet">

<g transform="translate(0.000000,512.000000) scale(0.100000,-0.100000)" fill="#000000" stroke="none">
<path d="M2450 4006 c-146 -42 -231 -135 -261 -285 -9 -47 -10 -106 -3 -230
11 -199 9 -377 -4 -411 -5 -14 -54 -84 -108 -157 -121 -160 -182 -261 -236
-384 -55 -128 -79 -227 -79 -326 0 -46 -4 -83 -9 -83 -5 0 -27 -27 -50 -59
-50 -75 -65 -85 -170 -117 -106 -31 -134 -58 -126 -118 18 -132 18 -171 -3
-230 -26 -73 -26 -87 -1 -119 25 -32 85 -52 230 -78 64 -11 187 -44 276 -75
179 -60 239 -67 302 -35 20 10 47 32 58 48 19 25 31 30 110 42 212 31 496 21
533 -19 70 -77 85 -89 126 -100 86 -24 146 -3 265 93 98 79 154 114 272 171
116 57 158 98 158 155 0 43 -16 62 -88 101 -62 33 -88 74 -96 152 -4 38 -17
80 -31 104 -24 41 -24 43 -13 157 10 100 10 126 -5 192 -29 133 -136 326 -325
583 -127 172 -136 199 -147 437 -13 320 -87 490 -243 567 -62 31 -75 33 -177
35 -67 1 -128 -3 -155 -11z m287 -371 c40 -27 63 -74 63 -133 0 -80 -37 -142
-85 -142 -10 0 -8 9 6 37 24 47 24 70 -1 111 -42 69 -127 22 -117 -65 l4 -41
-26 11 c-37 16 -41 25 -41 87 0 123 105 195 197 135z m-353 -24 c27 -23 46
-74 46 -125 0 -37 -5 -48 -28 -64 l-27 -20 3 37 c3 29 -2 44 -23 69 -15 18
-32 32 -39 32 -26 0 -51 -41 -50 -83 1 -33 8 -47 34 -70 26 -23 30 -31 19 -38
-21 -14 -40 -7 -61 22 -42 56 -44 152 -4 212 38 57 85 67 130 28z m153 -247
c26 -9 81 -31 121 -49 103 -48 100 -57 -44 -140 -132 -75 -159 -83 -200 -62
-46 25 -124 102 -124 123 1 18 42 55 133 117 47 32 51 32 114 11z m289 -239
c34 -60 164 -360 202 -466 l21 -56 -52 27 c-29 16 -68 31 -87 34 -33 7 -32 5
15 -19 136 -71 193 -193 182 -390 -8 -135 -13 -147 -65 -149 -23 -1 -47 -7
-52 -12 -16 -16 -30 -119 -30 -220 l0 -91 -73 -70 c-41 -39 -98 -82 -128 -96
-77 -37 -190 -57 -320 -57 l-113 0 -62 67 -62 67 31 20 c79 53 49 121 -109
247 -62 49 -128 109 -146 132 -31 38 -33 47 -36 129 -4 98 18 193 66 282 29
53 99 112 172 145 62 27 21 26 -61 -2 l-65 -22 36 96 c21 53 60 136 88 185 46
80 82 179 82 226 0 20 15 24 26 7 14 -23 126 -88 163 -94 44 -7 58 -1 211 89
52 31 104 55 114 54 12 -2 32 -27 52 -63z m359 -599 c28 -145 15 -310 -32
-421 -52 -124 -56 -139 -49 -178 14 -73 109 -98 216 -58 52 20 78 44 106 95
15 27 18 28 29 13 7 -10 15 -43 19 -75 8 -68 35 -117 78 -140 17 -9 45 -29 62
-44 41 -36 31 -52 -65 -102 -132 -68 -213 -119 -259 -162 -73 -68 -118 -94
-162 -94 -50 0 -74 13 -93 51 -22 41 -20 100 5 251 14 87 20 161 18 234 l-3
107 30 17 c21 11 37 34 53 74 51 126 64 281 37 431 -17 93 -17 90 -10 83 3 -3
12 -40 20 -82z m-1335 -473 c44 -31 79 -77 152 -197 39 -65 102 -159 139 -209
37 -50 70 -104 73 -120 13 -67 -35 -147 -99 -163 -31 -8 -126 18 -249 66 -65
26 -150 49 -235 65 -74 13 -139 29 -144 34 -14 14 -11 55 7 125 11 41 14 80 9
131 -7 85 -9 83 102 110 92 22 109 34 145 104 37 74 56 85 100 54z"></path>
</g>
</svg><style>@media (prefers-color-scheme: light) { :root { filter: none; } }
</style></svg>